<svg xmlns="http://www.w3.org/2000/svg" width="119" height="35" fill="none" viewBox="0 0 119 35">
  <path fill="#fff" d="M45.243 8.47c2.552.403 4.853 1.018 4.853 3.383s-2.552 3.256-5.034 3.256c-1.638 0-3.712-.582-4.478-1.84a.946.946 0 0 1 .357-1.254.92.92 0 0 1 .455-.125h1.545c0 1.835 1.188 2.436 2.14 2.436.95 0 2.213-.601 2.213-2.436 0-.783-1.063-1.055-2.395-1.257-2.57-.4-4.64-1.178-4.64-3.285 0-2.22 2.784-3.092 4.747-3.162 1.457 0 3.777.614 4.496 2.233a.948.948 0 0 1-.444 1.13.92.92 0 0 1-.419.109h-1.633c0-2.074-1.262-2.694-1.963-2.694-.807 0-1.995.62-1.995 2.347 0 .764 1.206 1.037 2.176 1.182l.019-.023Zm13.819 6.367c.5-.822.74-1.78.682-2.745V9.507c0-2.708-.288-4.547-2.014-4.547-2.195 0-2.877 1.84-2.877 4.547v2.585a5.592 5.592 0 0 0 .413 2.271v.038c.083.164.18.32.288.469l.037.033h-4.32l.074-.09c.501-.822.74-1.78.682-2.744v-8.76c0-1.986-.757-2.816-.757-2.816h1.281a2.266 2.266 0 0 1 1.63.676 2.314 2.314 0 0 1 .672 1.646V5.8c.626-.91 1.364-1.62 2.858-1.62 3.652 0 4.822 2.455 4.822 5.472v2.44a5.592 5.592 0 0 0 .413 2.271v.038c.083.164.179.32.287.469l.033.038H58.95l.074-.094.038.023Zm16.64-2.529c-.03.91.235 1.805.756 2.548h-1.926c-.756 0-1.62-.62-1.62-1.384-.644.91-1.391 1.619-2.876 1.619-3.648 0-5.68-2.455-5.68-5.476 0-3.022 2.032-5.472 5.68-5.472a5.586 5.586 0 0 1 1.819.291 5.689 5.689 0 0 0 4.64-.075 4.732 4.732 0 0 0-.756 2.816l-.037 5.133Zm-5.685 1.947c2.195 0 2.877-2.909 2.877-4.66 0-2.688-.682-4.668-2.877-4.668-1.726 0-2.877 1.98-2.877 4.692s1.151 4.693 2.877 4.693v-.057Zm19.109-2.219c0 1.98.756 2.815.756 2.815h-1.025a2.604 2.604 0 0 1-1.437-.421 2.648 2.648 0 0 1-.976-1.146 4.535 4.535 0 0 1-1.632 1.336c-.64.31-1.343.463-2.053.447-3.146 0-4.983-2.454-4.983-5.476s1.62-5.466 5.002-5.466a4.472 4.472 0 0 1 1.961.4 4.52 4.52 0 0 1 1.598 1.218V3.285c0-1.985-.756-2.816-.756-2.816h1.007c1.262 0 2.538 1.037 2.538 2.309v9.258Zm-5.684 2.22c2.176 0 2.877-2.91 2.877-4.66 0-2.689-.683-4.67-2.877-4.67-1.727 0-2.859 1.981-2.859 4.693 0 2.712 1.132 4.693 2.859 4.693v-.057Zm19.108-9.911a10.894 10.894 0 0 0-2.195 3.214l-4.176 9.423a2.836 2.836 0 0 1-1.013 1.35 2.786 2.786 0 0 1-1.595.526 2.959 2.959 0 0 1-1.819-.67 2.312 2.312 0 0 1-.663-1.563 1.195 1.195 0 0 1 .336-.848 1.169 1.169 0 0 1 .833-.353h1.62c-.757.746-.845 2.618-.181 2.618 1.095 0 1.814-1.675 1.814-1.675.362-.798.093-1.98-.27-2.783l-2.58-5.842a12.345 12.345 0 0 0-2.264-3.397h4.585a3.832 3.832 0 0 0-.056.652 4.484 4.484 0 0 0 .4 1.877l2.208 5.021 2.32-5.255a3.795 3.795 0 0 0 .269-2.276l2.427-.019ZM46.644 19.853c2.608 0 3.183 1.366 3.183 3.22a1.167 1.167 0 0 1-.328.818 1.141 1.141 0 0 1-.804.345h-1.652s1.364-3.566-.362-3.566c-2.195 0-2.858 1.365-2.858 4.058v3.055a5.57 5.57 0 0 0 .413 2.271v.038c.082.165.178.322.288.47l.032.037H40.24l.075-.094c.2-.272.682-1.126.682-2.745v-4.857a5.898 5.898 0 0 0-.358-2.107 3.194 3.194 0 0 0-.361-.694 6.32 6.32 0 0 0 4.858.056 3.95 3.95 0 0 1 1.545-.29l-.037-.015Zm11.949 10.713c.501-.822.74-1.781.682-2.745v-2.586c0-2.707-.288-4.547-2.014-4.547-2.195 0-2.877 1.84-2.877 4.547v2.586a5.591 5.591 0 0 0 .413 2.27v.038c.083.164.18.321.288.47l.037.032h-4.316l.07-.089c.2-.272.682-1.126.682-2.745v-8.76c0-1.985-.752-2.816-.752-2.816h1.277a2.275 2.275 0 0 1 1.613.678c.427.433.668 1.02.67 1.631v2.984c.63-.91 1.364-1.619 2.858-1.619 3.652 0 4.821 2.454 4.821 5.476v2.436a5.592 5.592 0 0 0 .413 2.27v.038c.084.164.18.321.288.47l.037.037h-4.32l.074-.094.056.038Z"/>
  <path fill="#fff" d="M74.3 20.074c-.918.93-1.662 2.02-2.195 3.219L67.93 32.71a2.812 2.812 0 0 1-1.01 1.355 2.763 2.763 0 0 1-1.598.522 2.96 2.96 0 0 1-1.819-.67 2.303 2.303 0 0 1-.663-1.564 1.194 1.194 0 0 1 .336-.848 1.169 1.169 0 0 1 .833-.353h1.62c-.757.746-.845 2.619-.181 2.619 1.095 0 1.814-1.67 1.814-1.67.362-.803.093-1.986-.27-2.783l-2.565-5.856a12.344 12.344 0 0 0-2.265-3.398h4.585a3.873 3.873 0 0 0-.056.653 4.466 4.466 0 0 0 .4 1.877l2.208 5.02 2.32-5.255a3.792 3.792 0 0 0 .27-2.276l2.412-.01Zm14.752 10.529a4.733 4.733 0 0 0 .686-2.75v-3.035c0-2.689-.464-4.055-1.6-4.055-1.857 0-2.557 1.253-2.608 3.801v3.285a5.6 5.6 0 0 0 .413 2.276v.037c.081.165.177.322.287.47l.033.037h-4.274l.074-.09c.502-.821.74-1.78.683-2.744v-3.069c0-2.693-.488-4.059-1.601-4.059-1.908 0-2.627 1.366-2.627 4.06v3.054a5.687 5.687 0 0 0 .413 2.27v.038c.085.163.181.32.288.47l.037.032h-4.315l.07-.089c.199-.272.686-1.126.686-2.745v-4.856a5.887 5.887 0 0 0-.362-2.107 3.401 3.401 0 0 0-.357-.695 5.7 5.7 0 0 0 4.603.057 5.383 5.383 0 0 1 1.796-.291 3.367 3.367 0 0 1 1.892.494c.57.349 1.024.86 1.31 1.467a4.196 4.196 0 0 1 1.506-1.434 4.14 4.14 0 0 1 2.002-.527c3.146 0 4.477 2.454 4.477 5.476v2.435a5.592 5.592 0 0 0 .413 2.271v.038c.084.164.18.32.288.469l.037.037h-4.315l.07-.093-.005.065Zm12.078-.765c2.733 0 4.603-2.6 4.603-2.6-.737 1.944-2.914 3.581-5.568 3.581-3.564 0-5.791-2.491-5.791-5.509 0-3.017 2.227-5.438 5.791-5.438 2.821 0 5.035 1.51 5.661 3.984a1.635 1.635 0 0 1-.28 1.412 1.591 1.591 0 0 1-1.284.624h-6.927c.413 1.962 1.6 3.947 3.814 3.947h-.019Zm-1.925-9.056c-1.857.507-2.158 2.53-2.033 4.294h5.323a.658.658 0 0 0 .471-.248.677.677 0 0 0 .141-.517c-.325-2.074-1.777-4.11-3.884-3.529h-.018Zm12.946 3.416c2.557.404 4.858 1.018 4.858 3.383s-2.557 3.257-5.039 3.257c-1.633 0-3.712-.582-4.478-1.835a.947.947 0 0 1 .345-1.285.92.92 0 0 1 .467-.122h1.527c0 1.834 1.188 2.435 2.139 2.435.951 0 2.213-.6 2.213-2.435 0-.784-1.062-1.056-2.389-1.253-2.576-.404-4.641-1.183-4.641-3.313 0-2.215 2.784-3.092 4.747-3.163 1.457 0 3.778.62 4.497 2.238a.952.952 0 0 1-.123.838.93.93 0 0 1-.74.397h-1.638c0-2.074-1.258-2.694-1.963-2.694-.808 0-1.996.62-1.996 2.346 0 .765 1.207 1.037 2.177 1.183l.037.023Z"/>
  <path fill="#FADCD9" stroke="#FADCD9" stroke-miterlimit="10" d="M13.276 19.759 8.22 24.816l.97.963 5.087-5.089a4.02 4.02 0 0 0 1.566.603V31h1.361v-9.707c.58-.1 1.132-.321 1.62-.65l5.001 5.002.97-.962-4.992-4.995a4.079 4.079 0 0 0 .735-1.73H30v-1.362h-9.485a4.025 4.025 0 0 0-.603-1.566l4.696-4.697-.963-.963-4.695 4.697a3.99 3.99 0 0 0-1.8-.783V4h-1.33v9.26a4.077 4.077 0 0 0-1.73.737L9.323 9.229l-.97.955 4.782 4.784a4.042 4.042 0 0 0-.65 1.62H3v1.362h9.485c.108.66.38 1.281.79 1.809ZM16.5 14.56a2.715 2.715 0 0 1 1.889 4.646A2.715 2.715 0 1 1 16.5 14.56Z"/>
</svg>
