<svg xmlns="http://www.w3.org/2000/svg" width="100" height="15" fill="none" viewBox="0 0 100 15">
  <path fill="#FFCB45" d="m8 0 2.72 4.602L16 5.73l-3.6 3.972.544 5.299L8 12.852 3.056 15 3.6 9.701 0 5.73l5.28-1.127L8 0Zm21 0 2.72 4.602L37 5.73l-3.6 3.972.544 5.299L29 12.852 24.056 15l.544-5.299L21 5.73l5.28-1.127L29 0Zm21 0 2.72 4.602L58 5.73l-3.6 3.972.544 5.299L50 12.852 45.056 15l.544-5.299L42 5.73l5.28-1.127L50 0Zm21 0 2.72 4.602L79 5.73l-3.6 3.972.544 5.299L71 12.852 66.056 15l.544-5.299L63 5.73l5.28-1.127L71 0Zm21 0 2.72 4.602L100 5.73l-3.6 3.972.544 5.299L92 12.852 87.056 15l.544-5.299L84 5.73l5.28-1.127L92 0Z"/>
</svg>
