<svg xmlns="http://www.w3.org/2000/svg" width="76" height="12" fill="none" viewBox="0 0 76 12">
  <path fill="#FFCB45" d="m6.08 0 2.067 3.682 4.013.902L9.424 7.76 9.838 12 6.08 10.282 2.322 12l.414-4.24L0 4.585l4.013-.902L6.08 0Zm15.96 0 2.067 3.682 4.013.902-2.736 3.177.414 4.239-3.758-1.718L18.282 12l.414-4.24-2.736-3.176 4.013-.902L22.04 0ZM38 0l2.067 3.682 4.013.902-2.736 3.177.414 4.239L38 10.282 34.242 12l.414-4.24-2.736-3.176 4.013-.902L38 0Zm15.96 0 2.067 3.682 4.013.902-2.736 3.177.413 4.239-3.757-1.718L50.202 12l.414-4.24-2.736-3.176 4.013-.902L53.96 0Zm15.96 0 2.067 3.682L76 4.584 73.264 7.76l.413 4.24-3.757-1.718L66.162 12l.414-4.24-2.736-3.176 4.013-.902L69.92 0Z"/>
</svg>
