<svg xmlns="http://www.w3.org/2000/svg" width="238" height="70" fill="none" viewBox="0 0 238 70">
  <path fill="#fff" d="M90.485 16.94c5.105.806 9.708 2.036 9.708 6.766s-5.105 6.512-10.07 6.512c-3.276 0-7.424-1.163-8.955-3.678a1.894 1.894 0 0 1 .043-1.842 1.84 1.84 0 0 1 1.58-.917h3.091c0 3.67 2.376 4.87 4.278 4.87 1.903 0 4.427-1.2 4.427-4.87 0-1.568-2.125-2.112-4.788-2.515-5.142-.798-9.281-2.356-9.281-6.57 0-4.439 5.568-6.184 9.494-6.325 2.914 0 7.554 1.23 8.993 4.467a1.897 1.897 0 0 1-.241 1.682 1.862 1.862 0 0 1-1.485.796h-3.267c0-4.148-2.524-5.387-3.926-5.387-1.615 0-3.99 1.239-3.99 4.692 0 1.53 2.412 2.074 4.352 2.365l.037-.047Zm27.638 12.734a9.464 9.464 0 0 0 1.364-5.49v-5.17c0-5.416-.575-9.094-4.028-9.094-4.389 0-5.754 3.678-5.754 9.093v5.171a11.206 11.206 0 0 0 .826 4.542v.076c.167.327.36.641.576.938l.074.066h-8.64l.148-.179a9.464 9.464 0 0 0 1.365-5.49V6.617c0-3.97-1.513-5.632-1.513-5.632h2.561a4.53 4.53 0 0 1 1.764.346c.56.232 1.068.574 1.496 1.006a4.639 4.639 0 0 1 1.343 3.294V11.6c1.253-1.821 2.729-3.238 5.717-3.238 7.304 0 9.643 4.908 9.643 10.942v4.88a11.173 11.173 0 0 0 .826 4.542v.076c.166.327.359.641.575.938l.065.075H117.9l.149-.188.074.047Zm33.28-5.058a8.388 8.388 0 0 0 1.513 5.096h-3.852c-1.513 0-3.239-1.24-3.239-2.769-1.29 1.82-2.784 3.238-5.754 3.238-7.294 0-11.359-4.908-11.359-10.952s4.065-10.943 11.359-10.943a11.171 11.171 0 0 1 3.638.582 11.378 11.378 0 0 0 9.281-.15 9.466 9.466 0 0 0-1.513 5.63l-.074 10.268Zm-11.369 3.894c4.39 0 5.754-5.818 5.754-9.319 0-5.377-1.364-9.337-5.754-9.337-3.452 0-5.754 3.96-5.754 9.384 0 5.425 2.302 9.385 5.754 9.385v-.113Zm38.218-4.438c0 3.96 1.512 5.63 1.512 5.63h-2.051a5.21 5.21 0 0 1-2.873-.842 5.299 5.299 0 0 1-1.953-2.292 9.061 9.061 0 0 1-3.263 2.672 8.966 8.966 0 0 1-4.105.894c-6.293 0-9.968-4.908-9.968-10.952 0-6.043 3.239-10.933 10.005-10.933a8.946 8.946 0 0 1 3.923.801 9.043 9.043 0 0 1 3.195 2.437V6.569c0-3.97-1.513-5.63-1.513-5.63h2.014c2.524 0 5.077 2.073 5.077 4.617v18.516Zm-11.369 4.439c4.352 0 5.754-5.819 5.754-9.32 0-5.377-1.364-9.337-5.754-9.337-3.453 0-5.717 3.96-5.717 9.384 0 5.425 2.264 9.385 5.717 9.385v-.113ZM205.1 8.69a21.767 21.767 0 0 0-4.389 6.428l-8.353 18.845a5.675 5.675 0 0 1-2.027 2.702 5.573 5.573 0 0 1-3.189 1.052 5.92 5.92 0 0 1-3.638-1.342 4.623 4.623 0 0 1-1.327-3.126 2.374 2.374 0 0 1 .672-1.696 2.317 2.317 0 0 1 1.667-.706h3.239c-1.513 1.492-1.689 5.237-.362 5.237 2.19 0 3.629-3.35 3.629-3.35.723-1.596.185-3.96-.539-5.566l-5.16-11.684a24.67 24.67 0 0 0-4.529-6.794h9.17c-.075.43-.112.867-.112 1.304a8.987 8.987 0 0 0 .798 3.754l4.418 10.042 4.64-10.511a7.58 7.58 0 0 0 .538-4.552l4.854-.037ZM93.288 39.706c5.216 0 6.367 2.731 6.367 6.438a2.332 2.332 0 0 1-.656 1.638 2.282 2.282 0 0 1-1.609.69h-3.304s2.729-7.133-.724-7.133c-4.39 0-5.717 2.731-5.717 8.118v6.11a11.146 11.146 0 0 0 .826 4.542v.075c.165.33.357.643.576.938l.065.075H80.48l.148-.187c.4-.545 1.365-2.253 1.365-5.49v-9.713a11.803 11.803 0 0 0-.715-4.214 6.387 6.387 0 0 0-.724-1.39 12.639 12.639 0 0 0 9.717.113 7.904 7.904 0 0 1 3.09-.581l-.074-.029Zm23.897 21.426a9.465 9.465 0 0 0 1.365-5.49V50.47c0-5.415-.576-9.094-4.028-9.094-4.39 0-5.754 3.679-5.754 9.094v5.17a11.19 11.19 0 0 0 .826 4.543v.075c.167.328.359.642.575.938l.075.066h-8.631l.139-.178c.399-.544 1.364-2.252 1.364-5.49v-17.52c0-3.97-1.503-5.631-1.503-5.631h2.552a4.55 4.55 0 0 1 3.226 1.355 4.654 4.654 0 0 1 1.34 3.262v5.969c1.262-1.82 2.728-3.238 5.717-3.238 7.303 0 9.642 4.908 9.642 10.952v4.87a11.19 11.19 0 0 0 .826 4.543v.075c.167.328.359.642.576.938l.074.075h-8.64l.148-.187.111.075Z"/>
  <path fill="#fff" d="M148.6 40.148a21.704 21.704 0 0 0-4.39 6.438l-8.352 18.835a5.628 5.628 0 0 1-2.021 2.71 5.526 5.526 0 0 1-3.195 1.043 5.92 5.92 0 0 1-3.638-1.342 4.611 4.611 0 0 1-1.327-3.125 2.375 2.375 0 0 1 .672-1.697 2.34 2.34 0 0 1 1.667-.705h3.239c-1.513 1.492-1.689 5.236-.362 5.236 2.19 0 3.629-3.34 3.629-3.34.723-1.605.185-3.97-.539-5.566l-5.132-11.712a24.668 24.668 0 0 0-4.529-6.794h9.169a7.81 7.81 0 0 0-.111 1.304 8.939 8.939 0 0 0 .798 3.754l4.418 10.042 4.64-10.511a7.58 7.58 0 0 0 .538-4.552l4.826-.018Zm29.503 21.059a9.466 9.466 0 0 0 1.374-5.5v-6.071c0-5.378-.928-8.109-3.202-8.109-3.712 0-5.114 2.506-5.216 7.602v6.57a11.2 11.2 0 0 0 .826 4.55v.076c.163.33.356.644.575.938l.065.075h-8.547l.149-.178a9.472 9.472 0 0 0 1.364-5.49v-6.138c0-5.386-.975-8.117-3.202-8.117-3.814 0-5.253 2.73-5.253 8.117v6.11a11.366 11.366 0 0 0 .826 4.542v.075c.171.326.363.64.576.938l.074.066h-8.631l.139-.178c.399-.544 1.374-2.252 1.374-5.49v-9.713a11.795 11.795 0 0 0-.724-4.214 6.811 6.811 0 0 0-.715-1.389 11.399 11.399 0 0 0 9.206.113 10.772 10.772 0 0 1 3.592-.582 6.733 6.733 0 0 1 3.784.989 6.842 6.842 0 0 1 2.62 2.934 8.39 8.39 0 0 1 3.012-2.869 8.28 8.28 0 0 1 4.004-1.054c6.292 0 8.955 4.908 8.955 10.952v4.87a11.19 11.19 0 0 0 .826 4.543v.075c.167.328.36.641.576.938l.074.075h-8.631l.139-.188-.009.132Zm24.158-1.53c5.466 0 9.206-5.199 9.206-5.199-1.476 3.885-5.828 7.16-11.137 7.16-7.127 0-11.582-4.983-11.582-11.017s4.455-10.877 11.582-10.877c5.643 0 10.07 3.022 11.322 7.968a3.257 3.257 0 0 1-.559 2.825 3.196 3.196 0 0 1-1.139.93 3.161 3.161 0 0 1-1.429.318h-13.856c.826 3.922 3.202 7.892 7.629 7.892h-.037Zm-3.852-18.112c-3.712 1.013-4.315 5.058-4.065 8.587h10.645a1.314 1.314 0 0 0 .943-.495 1.354 1.354 0 0 0 .282-1.035c-.65-4.148-3.554-8.22-7.768-7.057h-.037Zm25.893 6.831c5.113.807 9.717 2.037 9.717 6.767s-5.114 6.513-10.079 6.513c-3.267 0-7.425-1.164-8.956-3.67a1.897 1.897 0 0 1 .004-1.884 1.87 1.87 0 0 1 .686-.686c.285-.163.607-.248.934-.245h3.054c0 3.67 2.375 4.87 4.278 4.87 1.902 0 4.427-1.2 4.427-4.87 0-1.567-2.126-2.112-4.78-2.506-5.151-.807-9.28-2.365-9.28-6.625 0-4.43 5.568-6.185 9.494-6.326 2.914 0 7.554 1.24 8.993 4.477a1.903 1.903 0 0 1-.247 1.675 1.841 1.841 0 0 1-1.48.793h-3.276c0-4.148-2.515-5.387-3.925-5.387-1.615 0-3.991 1.239-3.991 4.692 0 1.53 2.413 2.075 4.353 2.365l.074.047Z"/>
  <path fill="#FADCD9" stroke="#FADCD9" stroke-miterlimit="10" d="M26.551 39.517 16.44 49.631l1.94 1.926L28.556 41.38a8.044 8.044 0 0 0 3.13 1.206V62h2.724V42.586a8.31 8.31 0 0 0 3.24-1.3l10 10.005 1.941-1.926-9.986-9.989a8.16 8.16 0 0 0 1.471-3.46H60v-2.724H41.03a8.048 8.048 0 0 0-1.206-3.132l9.392-9.394-1.926-1.925-9.391 9.393a7.981 7.981 0 0 0-3.6-1.565V8h-2.66v18.522a8.154 8.154 0 0 0-3.46 1.472l-9.532-9.535-1.941 1.91 9.563 9.566a8.08 8.08 0 0 0-1.299 3.241H6V35.9h18.97a7.986 7.986 0 0 0 1.581 3.617ZM33 29.121a5.43 5.43 0 0 1 5.274 6.521 5.434 5.434 0 0 1-7.41 3.926 5.431 5.431 0 0 1-1.735-8.872 5.429 5.429 0 0 1 3.87-1.575Z"/>
</svg>
